<svg xmlns="http://www.w3.org/2000/svg" width="600" height="692.834" viewBox="0 0 600 692.834"><path fill-rule="evenodd" d="M800.034822,1000.38572 L800.055633,1000.40653 L887.291976,1050.76721 L899.840525,1058.00915 L899.882145,1058.07158 L899.882145,1058.25888 L899.944576,1058.36293 L899.944576,1072.8052 L899.882145,1072.84682 L899.882,1173.608 L899.944367,1173.56817 L899.965178,1173.54736 L987.13909,1123.22831 L987.13909,1123.2075 L999.77088,1115.92393 L1000.2287,1115.92393 L1005.82665,1119.14951 L1010.2176,1121.68835 L1012.69401,1123.10345 L1012.69401,1123.22831 L1099.86792,1173.56817 L1099.95117,1173.60979 L1099.95117,1289.16882 L1087.15289,1296.45238 L999.916551,1346.83387 L912.659397,1296.45238 L899.881937,1289.16882 L899.881,1173.61 L859.447933,1197.00046 L812.812283,1223.99128 L805.965728,1227.9036 L800.076443,1231.27485 L800.034822,1231.29566 L787.257362,1223.99128 L700.000208,1173.60979 L700.000208,1058.07158 L707.200536,1053.95117 L712.777669,1050.76721 L750.839518,1028.79164 L800.034822,1000.38572 Z M999.916551,1246.0709 L938.214319,1281.67715 L999.916551,1317.26258 L1061.61878,1281.67715 L999.916551,1246.0709 Z M1012.69401,1152.61231 L1012.69401,1223.99128 L1074.37543,1259.59753 L1074.37543,1188.40584 L1012.69401,1152.61231 Z M987.13909,1152.61231 L925.436858,1188.40584 L925.436858,1259.59753 L987.13909,1223.99128 L987.13909,1152.61231 Z M725.555129,1087.64287 L725.555129,1158.83456 L787.257362,1194.60728 L787.257362,1123.4156 L725.555129,1087.64287 Z M874.327224,1087.64287 L812.812283,1123.22831 L812.812283,1194.41999 L874.327224,1158.83456 L874.327224,1087.64287 Z M999.798141,885.183594 L1099.89519,942.900674 L1099.89519,1057.93112 L999.798141,1115.65028 L900.104814,1057.93112 L900.104814,942.900674 L999.798141,885.183594 Z M800.034822,1029.95701 L738.33259,1065.54244 L800.034822,1101.14869 L861.737055,1065.54244 L800.034822,1029.95701 Z M999.825194,914.696614 L925.659735,957.634293 L925.659735,1043.1975 L999.825194,1086.13726 L1074.34026,1043.16628 L1074.34026,957.663427 L999.825194,914.696614 Z M900.054453,1058.72045 L900.657949,1059.78177 L900.449847,1059.65691 L900.054453,1059.42799 L900.054453,1058.72045 Z M800.034614,769.47578 L800.055424,769.49659 L805.90309,772.826222 L812.812075,776.780159 L864.005158,806.413879 L899.881937,827.161645 L899.881937,927.924616 L899.944367,927.966236 L899.944367,942.595804 L899.881937,942.699855 L899.840316,942.762286 L887.291768,950.004234 L859.447725,966.090516 L800.076235,1000.36491 L800.034614,1000.38572 L745.387038,968.837462 L712.777461,950.004234 L707.325189,946.882705 L700,942.699855 L700,827.161645 L787.257154,776.780159 L800.034614,769.47578 Z M800.034614,899.622749 L738.332382,935.228995 L800.034614,970.814431 L861.736847,935.228995 L800.034614,899.622749 Z M787.257154,806.164156 L725.554921,841.936884 L725.554921,913.128566 L787.257154,877.54313 L787.257154,806.164156 Z M812.812075,806.351448 L812.812075,877.54313 L874.327016,913.128566 L874.327016,841.936884 L812.812075,806.351448 Z M1000.0206,654 L1087.15289,704.319055 L1099.95117,711.623434 L1099.95117,827.161645 L1012.69401,877.54313 L1012.69401,877.605561 L1006.03475,881.455447 L1000.16627,884.847509 L1000.12465,884.805889 L945.456267,853.299251 L933.989849,846.702419 L912.805069,834.486834 L907.373608,831.344494 L900.110849,827.161645 L900.110849,711.623434 L907.269557,707.503015 L950.908538,682.343488 L1000.0206,654 Z M1074.37543,741.194723 L1012.69401,776.780159 L1012.69401,848.159133 L1074.37543,812.365595 L1074.37543,741.194723 Z M925.436858,741.194723 L925.436858,812.365595 L987.13909,848.159133 L987.13909,776.780159 L925.436858,741.194723 Z M999.916551,683.508859 L938.214319,719.094294 L999.916551,754.700541 L1061.61878,719.094294 L999.916551,683.508859 Z M1199.96518,1000.38572 L1200.0068,1000.40653 L1200.02761,1000.40653 L1287.22233,1050.76721 L1290.96817,1052.91066 L1299.99979,1058.07158 L1299.99979,1173.60979 L1212.74264,1223.99128 L1209.53787,1225.82258 L1200.02761,1231.25404 L1145.35922,1199.7474 L1133.8928,1193.15057 L1112.70802,1180.93498 L1107.27656,1177.79264 L1100.0138,1173.60979 L1100.0138,1058.07158 L1107.17251,1053.95117 L1112.70802,1050.76721 L1112.72883,1050.76721 L1132.37366,1039.42565 L1199.96518,1000.38572 Z M1274.44487,1087.64287 L1212.74264,1123.22831 L1212.74264,1194.60728 L1274.44487,1158.83456 L1274.44487,1087.64287 Z M1125.50629,1087.64287 L1125.50629,1158.83456 L1187.18772,1194.60728 L1187.18772,1123.22831 L1125.50629,1087.64287 Z M1199.96518,1029.95701 L1138.26295,1065.54244 L1199.96518,1101.14869 L1261.66741,1065.54244 L1199.96518,1029.95701 Z M1200.02782,769.49659 L1210.26643,775.365066 L1212.74285,776.780159 L1300,827.161645 L1300,942.699855 L1290.96837,947.860784 L1287.22254,950.004234 L1200.02782,1000.3441 L1199.96539,1000.38572 L1145.35943,968.837462 L1133.89301,962.24063 L1112.72904,950.004234 L1112.70823,950.025044 L1107.27677,946.882705 L1100.01401,942.699855 L1100.01401,827.161645 L1107.17272,823.041226 L1150.8117,797.881698 L1200.00701,769.49659 L1200.02782,769.49659 Z M1199.96539,899.622749 L1138.26315,935.228995 L1199.96539,970.814431 L1261.66762,935.228995 L1199.96539,899.622749 Z M1187.18793,806.164156 L1125.5065,841.936884 L1125.5065,913.128566 L1187.18793,877.54313 L1187.18793,806.164156 Z M1212.74285,806.164156 L1212.74285,877.54313 L1274.44508,913.128566 L1274.44508,841.936884 L1212.74285,806.164156 Z" transform="translate(-700 -654)"/></svg>