<svg xmlns="http://www.w3.org/2000/svg" width="600" height="692.912" viewBox="0 0 600 692.912"><path fill-rule="evenodd" d="M800.029134,1000.456 L887.282792,1050.83579 L893.48844,1047.18565 L899.877219,1058.13814 L899.877219,1058.32127 L906.268079,1069.27168 L899.877219,1072.9239 L899.877843,1173.68285 L987.131501,1123.30306 L987.131501,1116.00071 L1012.68662,1116.00071 L1012.68662,1123.30306 L1099.93819,1173.68285 L1099.93819,1289.23027 L1087.16064,1296.53262 L999.909059,1346.91241 L912.655401,1296.53262 L899.877843,1289.23027 L899.877219,1173.68347 L812.806693,1224.06326 L800.029134,1231.36562 L787.251576,1224.06326 L700,1173.68347 L700,1058.13814 L712.777558,1050.83579 L800.029134,1000.456 Z M999.909059,1246.15075 L938.210518,1281.74686 L999.909059,1317.34089 L1061.60552,1281.74686 L999.909059,1246.15075 Z M987.131501,1152.69144 L925.432959,1188.46861 L925.432959,1259.65875 L987.131501,1224.06264 L987.131501,1152.69144 Z M1012.68662,1152.69144 L1012.68662,1224.06264 L1074.38308,1259.65875 L1074.38308,1188.46861 L1012.68662,1152.69144 Z M1199.96878,769.546792 L1212.74634,776.847065 L1300,827.226854 L1300,942.77427 L1287.22244,950.074543 L1199.96878,1000.45433 L1287.22244,1050.8362 L1300,1058.13856 L1300,1173.68389 L1212.74634,1224.06368 L1199.96878,1231.36603 L1187.19331,1224.06368 L1099.93965,1173.68389 L1099.93965,1072.92223 L1093.55087,1069.2721 L1093.5592,1069.25753 L1057.90481,1048.67401 L1012.75467,1074.70984 L1012.75467,1115.94556 L987.191226,1115.94556 L987.191226,1074.78268 L987.130876,1074.7473 L942.063971,1048.65736 L906.35132,1069.27834 L893.5696,1047.1382 L929.265603,1026.52763 L929.265603,974.403929 L893.5696,953.793353 L906.35132,931.653216 L942.047323,952.263792 L987.130876,926.161363 L987.191226,926.128067 L987.191226,884.983914 L1012.75467,884.983914 L1012.75467,926.200903 L1057.92146,952.245063 L1093.56752,931.667783 L1093.55087,931.638649 L1099.93965,927.988513 L1099.93965,827.226854 L1187.19331,776.847065 L1199.96878,769.546792 Z M1125.49477,1087.70799 L1125.49477,1158.89813 L1187.19331,1194.6753 L1187.19331,1123.3041 L1125.49477,1087.70799 Z M1274.44488,1087.70799 L1212.74634,1123.3041 L1212.74634,1194.6753 L1274.44488,1158.89813 L1274.44488,1087.70799 Z M725.555116,1087.70965 L725.555116,1158.89772 L787.251576,1194.67488 L787.251576,1123.48474 L725.555116,1087.70965 Z M874.322103,1087.70965 L812.806693,1123.30369 L812.806693,1194.49175 L874.322103,1158.89772 L874.322103,1087.70965 Z M800.029134,1030.02543 L738.332674,1065.62154 L800.029134,1101.21557 L861.727676,1065.62154 L800.029134,1030.02543 Z M1199.96878,1030.02585 L1138.27024,1065.62196 L1199.96878,1101.21599 L1261.66733,1065.62196 L1199.96878,1030.02585 Z M999.908434,948.432606 L954.891474,974.310282 L954.820719,974.435145 L954.820719,1026.49641 L954.876907,1026.59006 L999.7586,1052.57387 L1000.05827,1052.57387 L1045.02737,1026.64416 L1045.1772,1026.38612 L1045.1772,974.545439 L1045.01072,974.258257 L999.908434,948.432606 Z M1112.71721,950.074543 L1106.33467,953.720517 L1106.37421,953.793353 L1070.73232,974.368551 L1070.73232,1026.563 L1106.37421,1047.1382 L1106.343,1047.19439 L1112.71721,1050.8362 L1199.96878,1000.45433 L1112.71721,950.074543 Z M800.029134,769.546792 L812.806693,776.847065 L899.877219,827.226854 L899.877219,927.988513 L906.268079,931.638649 L899.877219,942.77427 L893.48844,953.724679 L887.282792,950.074543 L800.029134,1000.45433 L712.777558,950.074543 L700,942.77427 L700,827.226854 L787.251576,776.847065 L800.029134,769.546792 Z M1199.96878,899.694754 L1138.27024,935.288785 L1199.96878,970.884898 L1261.66733,935.288785 L1199.96878,899.694754 Z M800.029134,899.694754 L738.332674,935.288785 L800.029134,970.884898 L861.727676,935.288785 L800.029134,899.694754 Z M812.806693,806.418579 L812.806693,877.608724 L874.322103,913.202755 L874.322103,842.012611 L812.806693,806.418579 Z M787.251576,806.235448 L725.555116,842.012611 L725.555116,913.202755 L787.251576,877.608724 L787.251576,806.235448 Z M1187.19331,806.235448 L1125.49477,842.012611 L1125.49477,913.202755 L1187.19331,877.608724 L1187.19331,806.235448 Z M1212.74634,806.235448 L1212.74634,877.608724 L1274.44488,913.202755 L1274.44488,842.012611 L1212.74634,806.235448 Z M999.909683,654 L1087.16126,704.379789 L1099.93882,711.680062 L1099.93882,827.227478 L1012.68724,877.607267 L1012.68724,884.909621 L987.130044,884.909621 L987.130044,877.607267 L899.878468,827.227478 L899.878468,711.680062 L912.653945,704.379789 L999.909683,654 Z M925.433584,741.251576 L925.433584,812.441721 L987.130044,848.218883 L987.130044,776.847689 L925.433584,741.251576 Z M1074.3837,741.251576 L1012.68724,776.847689 L1012.68724,848.218883 L1074.3837,812.441721 L1074.3837,741.251576 Z M999.909683,683.569434 L938.211142,719.165546 L999.909683,754.759578 L1061.60614,719.165546 L999.909683,683.569434 Z" transform="translate(-700 -654)"/></svg>